<svg width="58" height="58" viewBox="0 0 58 58" fill="none" xmlns="http://www.w3.org/2000/svg">
<rect width="58" height="58" fill="#6FB0B5"/>
<path d="M7.99556 42V15.8182H17.5836C19.4416 15.8182 20.9799 16.125 22.1987 16.7386C23.4174 17.3437 24.3294 18.1662 24.9345 19.206C25.5396 20.2372 25.8422 21.4006 25.8422 22.696C25.8422 23.7869 25.6419 24.7074 25.2413 25.4574C24.8407 26.1989 24.3038 26.7955 23.6305 27.2472C22.9657 27.6903 22.2328 28.0142 21.4316 28.2188V28.4744C22.301 28.517 23.149 28.7983 23.9757 29.3182C24.8109 29.8295 25.5012 30.5582 26.0467 31.5043C26.5922 32.4503 26.8649 33.6009 26.8649 34.956C26.8649 36.294 26.5495 37.4957 25.9189 38.5611C25.2967 39.6179 24.3336 40.4574 23.0297 41.0795C21.7257 41.6932 20.0595 42 18.0311 42H7.99556ZM11.9458 38.6122H17.6476C19.5396 38.6122 20.8947 38.2457 21.7129 37.5128C22.5311 36.7798 22.9402 35.8636 22.9402 34.7642C22.9402 33.9375 22.7314 33.179 22.3137 32.4886C21.8961 31.7983 21.2995 31.2486 20.524 30.8395C19.7569 30.4304 18.845 30.2259 17.7882 30.2259H11.9458V38.6122ZM11.9458 27.1449H17.2385C18.1248 27.1449 18.9217 26.9744 19.6291 26.6335C20.345 26.2926 20.9118 25.8153 21.3294 25.2017C21.7555 24.5795 21.9686 23.8466 21.9686 23.0028C21.9686 21.9205 21.5893 21.0128 20.8308 20.2798C20.0723 19.5469 18.9089 19.1804 17.3407 19.1804H11.9458V27.1449ZM33.7619 42H29.5687L38.9906 15.8182H43.5545L52.9764 42H48.7832L41.3812 20.5739H41.1767L33.7619 42ZM34.465 31.7472H48.0673V35.071H34.465V31.7472Z" fill="#1A7A81"/>
</svg>
